<svg xmlns="http://www.w3.org/2000/svg" viewBox="0 0 512 512" width="512" height="512">
  <defs>
    <linearGradient id="baseGrad" x1="0" y1="0" x2="0" y2="1">
      <stop offset="0%" stop-color="#6366F1"/>
      <stop offset="100%" stop-color="#4338CA"/>
    </linearGradient>
    <linearGradient id="bgGrad" x1="0" y1="0" x2="1" y2="1">
      <stop offset="0%" stop-color="#1E1B4B"/>
      <stop offset="100%" stop-color="#0F172A"/>
    </linearGradient>
  </defs>
  <!-- Background -->
  <rect width="512" height="512" rx="96" fill="url(#bgGrad)"/>
  <!-- SD card base -->
  <path d="M136 340 L376 340 L376 440 Q376 452 364 452 L148 452 Q136 452 136 440 Z" fill="url(#baseGrad)"/>
  <rect x="165" y="358" width="40" height="7" rx="2" fill="#818CF8" opacity="0.6"/>
  <rect x="220" y="358" width="40" height="7" rx="2" fill="#818CF8" opacity="0.6"/>
  <rect x="275" y="358" width="40" height="7" rx="2" fill="#818CF8" opacity="0.6"/>
  <rect x="175" y="372" width="24" height="3" rx="1" fill="#A5B4FC" opacity="0.35"/>
  <rect x="210" y="372" width="24" height="3" rx="1" fill="#A5B4FC" opacity="0.35"/>
  <rect x="245" y="372" width="24" height="3" rx="1" fill="#A5B4FC" opacity="0.35"/>
  <rect x="280" y="372" width="24" height="3" rx="1" fill="#A5B4FC" opacity="0.35"/>
  <!-- File C (bottom) -->
  <rect x="128" y="232" width="230" height="72" rx="10" fill="#FDE68A" stroke="#F59E0B" stroke-width="2.5"/>
  <rect x="128" y="232" width="56" height="26" rx="10" fill="#F59E0B"/>
  <text x="143" y="252" font-family="Arial, Helvetica, sans-serif" font-size="18" font-weight="bold" fill="white">C</text>
  <rect x="150" y="274" width="150" height="7" rx="3.5" fill="#FCD34D" opacity="0.7"/>
  <rect x="150" y="288" width="105" height="7" rx="3.5" fill="#FCD34D" opacity="0.5"/>
  <!-- File B (middle) -->
  <rect x="128" y="140" width="230" height="72" rx="10" fill="#BBF7D0" stroke="#22C55E" stroke-width="2.5"/>
  <rect x="128" y="140" width="56" height="26" rx="10" fill="#22C55E"/>
  <text x="143" y="160" font-family="Arial, Helvetica, sans-serif" font-size="18" font-weight="bold" fill="white">B</text>
  <rect x="150" y="182" width="150" height="7" rx="3.5" fill="#86EFAC" opacity="0.7"/>
  <rect x="150" y="196" width="105" height="7" rx="3.5" fill="#86EFAC" opacity="0.5"/>
  <!-- File A (top) -->
  <rect x="128" y="48" width="230" height="72" rx="10" fill="#BFDBFE" stroke="#3B82F6" stroke-width="2.5"/>
  <rect x="128" y="48" width="56" height="26" rx="10" fill="#3B82F6"/>
  <text x="143" y="68" font-family="Arial, Helvetica, sans-serif" font-size="18" font-weight="bold" fill="white">A</text>
  <rect x="150" y="90" width="150" height="7" rx="3.5" fill="#93C5FD" opacity="0.7"/>
  <rect x="150" y="104" width="105" height="7" rx="3.5" fill="#93C5FD" opacity="0.5"/>
  <!-- Sort arrow -->
  <path d="M400 80 L400 290" stroke="#A78BFA" stroke-width="5" stroke-linecap="round" stroke-dasharray="10 7"/>
  <polygon points="386,280 400,308 414,280" fill="#A78BFA"/>
  <text x="383" y="65" font-family="Arial, Helvetica, sans-serif" font-size="22" font-weight="bold" fill="#C4B5FD">A</text>
  <text x="385" y="338" font-family="Arial, Helvetica, sans-serif" font-size="22" font-weight="bold" fill="#C4B5FD">Z</text>
</svg>